<svg width="1355" height="349" viewBox="0 0 1355 349" fill="none" xmlns="http://www.w3.org/2000/svg">
<path d="M435.642 174V24.1599H497.539C508.757 24.1599 518.439 26.3548 526.585 30.7447C534.779 35.0857 541.096 41.1584 545.534 48.9625C549.973 56.7179 552.192 65.7415 552.192 76.0332C552.192 86.3738 549.924 95.4217 545.388 103.177C540.901 110.884 534.487 116.859 526.146 121.102C517.805 125.346 507.904 127.468 496.441 127.468H458.25V98.9336H489.71C495.173 98.9336 499.734 97.9825 503.392 96.0802C507.099 94.178 509.904 91.5197 511.806 88.1053C513.708 84.6422 514.659 80.6182 514.659 76.0332C514.659 71.3995 513.708 67.3999 511.806 64.0343C509.904 60.62 507.099 57.9861 503.392 56.1326C499.685 54.2791 495.124 53.3524 489.71 53.3524H471.858V174H435.642Z" fill="white"/>
<path d="M570.044 174V24.1599H606.261V84.3008H665.304V24.1599H701.447V174H665.304V113.786H606.261V174H570.044Z" fill="white"/>
<path d="M724.165 174V24.1599H786.061C797.28 24.1599 806.962 26.3548 815.108 30.7447C823.302 35.0857 829.618 41.1584 834.057 48.9625C838.496 56.7179 840.715 65.7415 840.715 76.0332C840.715 86.3738 838.447 95.4217 833.911 103.177C829.423 110.884 823.009 116.859 814.669 121.102C806.328 125.346 796.426 127.468 784.964 127.468H746.772V98.9336H778.233C783.696 98.9336 788.256 97.9825 791.915 96.0802C795.622 94.178 798.426 91.5197 800.328 88.1053C802.231 84.6422 803.182 80.6182 803.182 76.0332C803.182 71.3995 802.231 67.3999 800.328 64.0343C798.426 60.62 795.622 57.9861 791.915 56.1326C788.208 54.2791 783.647 53.3524 778.233 53.3524H760.381V174H724.165Z" fill="white"/>
<path d="M907.953 24.1599H935.389L983.092 140.637H984.848L1032.55 24.1599H1059.99V174H1038.48V65.5708H1037.09L992.896 173.781H975.044L930.853 65.4976H929.463V174H907.953V24.1599Z" fill="#EAEAEA"/>
<path d="M1105.95 24.1599L1147.66 146.198H1149.34L1191.04 24.1599H1215.48L1161.56 174H1135.44L1081.52 24.1599H1105.95Z" fill="#EAEAEA"/>
<path d="M1354.13 72.8872H1331.3C1330.42 68.0096 1328.79 63.7173 1326.4 60.0103C1324.01 56.3033 1321.08 53.1573 1317.62 50.5721C1314.15 47.987 1310.28 46.036 1305.98 44.719C1301.74 43.4021 1297.23 42.7436 1292.45 42.7436C1283.82 42.7436 1276.08 44.9141 1269.26 49.2552C1262.48 53.5963 1257.11 59.9615 1253.16 68.351C1249.26 76.7405 1247.31 86.9835 1247.31 99.0799C1247.31 111.274 1249.26 121.566 1253.16 129.955C1257.11 138.345 1262.5 144.686 1269.33 148.978C1276.16 153.27 1283.84 155.416 1292.38 155.416C1297.11 155.416 1301.59 154.782 1305.84 153.514C1310.13 152.197 1314.01 150.27 1317.47 147.734C1320.93 145.198 1323.86 142.1 1326.25 138.442C1328.69 134.735 1330.37 130.492 1331.3 125.712L1354.13 125.785C1352.91 133.15 1350.54 139.93 1347.03 146.124C1343.57 152.27 1339.1 157.587 1333.64 162.074C1328.23 166.513 1322.03 169.952 1315.06 172.39C1308.08 174.829 1300.47 176.049 1292.23 176.049C1279.25 176.049 1267.69 172.976 1257.55 166.83C1247.4 160.635 1239.4 151.783 1233.55 140.271C1227.75 128.76 1224.84 115.03 1224.84 99.0799C1224.84 83.0814 1227.77 69.3509 1233.62 57.8885C1239.48 46.3774 1247.48 37.5489 1257.62 31.4031C1267.77 25.2086 1279.3 22.1113 1292.23 22.1113C1300.18 22.1113 1307.59 23.2575 1314.47 25.55C1321.4 27.7937 1327.62 31.1105 1333.13 35.5003C1338.64 39.8414 1343.2 45.158 1346.81 51.4501C1350.42 57.6934 1352.86 64.8391 1354.13 72.8872Z" fill="#EAEAEA"/>
<path d="M174.309 0C78.0407 0 0 78.041 0 174.309C0 270.577 78.0407 348.618 174.309 348.618C270.577 348.618 348.618 270.577 348.618 174.309V0H174.309ZM239.853 249.376L202.936 211.961C214.294 203.311 221.657 189.687 221.657 174.309C221.657 148.159 200.459 126.961 174.309 126.961C148.159 126.961 126.961 148.159 126.961 174.309C126.961 189.687 134.325 203.311 145.682 211.961L108.766 249.376C87.8556 231.104 74.6284 204.259 74.6284 174.309C74.6284 119.257 119.257 74.6284 174.309 74.6284C229.362 74.6284 273.99 119.257 273.99 174.309C273.99 204.259 260.763 231.104 239.853 249.376Z" fill="#2563EB"/>
<path d="M661.627 289C660.693 289 659.905 288.754 659.266 288.262C658.675 287.721 658.38 287.007 658.38 286.122V234.239C658.38 233.403 658.651 232.714 659.192 232.173C659.733 231.632 660.422 231.361 661.258 231.361H679.192C682.144 231.361 684.801 232.001 687.163 233.28C689.574 234.51 691.468 236.207 692.845 238.372C694.272 240.537 694.986 243.046 694.986 245.9C694.986 248.557 694.272 250.919 692.845 252.985C691.419 255.051 689.549 256.626 687.236 257.708C690.533 258.594 693.19 260.267 695.207 262.727C697.224 265.138 698.233 268.213 698.233 271.952C698.233 275.298 697.47 278.25 695.945 280.808C694.42 283.366 692.304 285.384 689.598 286.86C686.941 288.287 683.891 289 680.447 289H661.627ZM664.137 283.465H680.447C682.808 283.465 684.899 282.998 686.72 282.063C688.54 281.128 689.967 279.799 691 278.077C692.034 276.355 692.55 274.314 692.55 271.952C692.55 269.738 692.034 267.819 691 266.195C689.967 264.523 688.54 263.243 686.72 262.358C684.899 261.423 682.808 260.956 680.447 260.956H664.137V283.465ZM664.137 255.42H679.192C682.144 255.42 684.58 254.584 686.498 252.911C688.417 251.238 689.377 248.901 689.377 245.9C689.377 242.948 688.417 240.709 686.498 239.184C684.58 237.659 682.144 236.896 679.192 236.896H664.137V255.42Z" fill="#EAEAEA"/>
<path d="M731.024 289.369C727.088 289.369 723.57 288.483 720.47 286.712C717.37 284.941 714.935 282.505 713.164 279.406C711.393 276.306 710.507 272.788 710.507 268.852C710.507 264.867 711.393 261.325 713.164 258.225C714.935 255.125 717.37 252.69 720.47 250.919C723.57 249.147 727.088 248.262 731.024 248.262C734.96 248.262 738.453 249.147 741.503 250.919C744.603 252.69 747.039 255.125 748.81 258.225C750.581 261.325 751.491 264.867 751.54 268.852C751.54 272.788 750.63 276.306 748.81 279.406C747.039 282.505 744.603 284.941 741.503 286.712C738.453 288.483 734.96 289.369 731.024 289.369ZM731.024 284.203C733.877 284.203 736.436 283.539 738.699 282.21C740.962 280.882 742.734 279.061 744.013 276.749C745.292 274.437 745.932 271.804 745.932 268.852C745.932 265.9 745.292 263.268 744.013 260.956C742.734 258.594 740.962 256.749 738.699 255.42C736.436 254.092 733.877 253.428 731.024 253.428C728.17 253.428 725.612 254.092 723.348 255.42C721.085 256.749 719.289 258.594 717.961 260.956C716.682 263.268 716.042 265.9 716.042 268.852C716.042 271.804 716.682 274.437 717.961 276.749C719.289 279.061 721.085 280.882 723.348 282.21C725.612 283.539 728.17 284.203 731.024 284.203Z" fill="#EAEAEA"/>
<path d="M770.342 289C769.456 289 768.743 288.754 768.202 288.262C767.71 287.721 767.464 287.007 767.464 286.122V251.509C767.464 250.623 767.71 249.934 768.202 249.442C768.743 248.901 769.456 248.631 770.342 248.631C771.178 248.631 771.843 248.901 772.335 249.442C772.876 249.934 773.146 250.623 773.146 251.509V286.122C773.146 287.007 772.876 287.721 772.335 288.262C771.843 288.754 771.178 289 770.342 289ZM770.268 240.955C769.186 240.955 768.251 240.562 767.464 239.775C766.676 238.987 766.283 238.028 766.283 236.896C766.283 235.666 766.676 234.707 767.464 234.018C768.3 233.28 769.259 232.911 770.342 232.911C771.375 232.911 772.285 233.28 773.073 234.018C773.909 234.707 774.327 235.666 774.327 236.896C774.327 238.028 773.934 238.987 773.146 239.775C772.359 240.562 771.4 240.955 770.268 240.955Z" fill="#EAEAEA"/>
<path d="M800.015 289C798.047 289 796.275 288.459 794.701 287.376C793.176 286.294 791.97 284.793 791.085 282.874C790.248 280.956 789.83 278.742 789.83 276.232V234.166C789.83 233.329 790.076 232.665 790.568 232.173C791.109 231.632 791.798 231.361 792.635 231.361C793.471 231.361 794.135 231.632 794.627 232.173C795.168 232.665 795.439 233.329 795.439 234.166V276.232C795.439 278.348 795.857 280.07 796.694 281.398C797.579 282.727 798.686 283.391 800.015 283.391H801.86C802.598 283.391 803.188 283.662 803.631 284.203C804.074 284.695 804.295 285.359 804.295 286.196C804.295 287.032 803.975 287.721 803.336 288.262C802.745 288.754 801.958 289 800.974 289H800.015Z" fill="#EAEAEA"/>
<path d="M831.893 289.369C827.908 289.369 824.366 288.508 821.266 286.786C818.216 285.015 815.805 282.579 814.033 279.48C812.311 276.38 811.45 272.838 811.45 268.852C811.45 264.818 812.262 261.275 813.886 258.225C815.559 255.125 817.847 252.69 820.749 250.919C823.652 249.147 826.998 248.262 830.786 248.262C834.526 248.262 837.773 249.123 840.528 250.845C843.333 252.518 845.497 254.855 847.023 257.856C848.548 260.857 849.31 264.277 849.31 268.114C849.31 268.901 849.065 269.541 848.573 270.033C848.081 270.476 847.441 270.697 846.654 270.697H815.288V265.974H847.244L844.071 268.262C844.12 265.408 843.603 262.85 842.521 260.586C841.438 258.323 839.889 256.552 837.871 255.273C835.903 253.994 833.542 253.354 830.786 253.354C827.982 253.354 825.522 254.018 823.406 255.347C821.291 256.675 819.642 258.52 818.462 260.882C817.33 263.194 816.764 265.851 816.764 268.852C816.764 271.853 817.404 274.51 818.683 276.823C820.011 279.135 821.807 280.956 824.07 282.284C826.334 283.613 828.941 284.277 831.893 284.277C833.665 284.277 835.436 283.982 837.207 283.391C839.028 282.752 840.479 281.964 841.561 281.029C842.103 280.587 842.718 280.365 843.406 280.365C844.095 280.316 844.686 280.488 845.178 280.882C845.817 281.472 846.137 282.112 846.137 282.801C846.186 283.49 845.916 284.08 845.325 284.572C843.702 285.95 841.635 287.106 839.126 288.041C836.617 288.926 834.206 289.369 831.893 289.369Z" fill="#EAEAEA"/>
<path d="M864.975 264.129C865.123 261.078 865.91 258.348 867.337 255.937C868.813 253.526 870.707 251.632 873.02 250.254C875.381 248.877 877.989 248.188 880.843 248.188C883.106 248.188 884.853 248.508 886.083 249.147C887.313 249.787 887.78 250.722 887.485 251.952C887.288 252.69 886.944 253.182 886.452 253.428C886.009 253.674 885.443 253.772 884.754 253.723C884.115 253.674 883.377 253.625 882.54 253.575C879.785 253.329 877.325 253.625 875.16 254.461C873.044 255.248 871.347 256.478 870.068 258.151C868.838 259.824 868.223 261.816 868.223 264.129H864.975ZM865.418 289C864.533 289 863.844 288.754 863.352 288.262C862.86 287.77 862.614 287.081 862.614 286.196V251.435C862.614 250.55 862.86 249.861 863.352 249.369C863.844 248.877 864.533 248.631 865.418 248.631C866.304 248.631 866.993 248.877 867.485 249.369C867.977 249.861 868.223 250.55 868.223 251.435V286.196C868.223 287.081 867.977 287.77 867.485 288.262C866.993 288.754 866.304 289 865.418 289Z" fill="#EAEAEA"/>
<path d="M902.984 306.27C902.098 306.27 901.385 305.999 900.843 305.458C900.351 304.966 900.105 304.277 900.105 303.391V268.557C900.155 264.719 901.065 261.275 902.836 258.225C904.656 255.125 907.092 252.69 910.142 250.919C913.242 249.147 916.711 248.262 920.548 248.262C924.484 248.262 928.002 249.172 931.102 250.992C934.202 252.764 936.637 255.199 938.408 258.299C940.229 261.398 941.139 264.916 941.139 268.852C941.139 272.739 940.253 276.232 938.482 279.332C936.76 282.432 934.398 284.892 931.397 286.712C928.396 288.483 925.001 289.369 921.213 289.369C917.916 289.369 914.915 288.68 912.209 287.303C909.552 285.876 907.412 284.006 905.788 281.694V303.391C905.788 304.277 905.518 304.966 904.976 305.458C904.484 305.999 903.82 306.27 902.984 306.27ZM920.548 284.203C923.402 284.203 925.961 283.539 928.224 282.21C930.487 280.882 932.258 279.061 933.537 276.749C934.866 274.387 935.53 271.755 935.53 268.852C935.53 265.9 934.866 263.268 933.537 260.956C932.258 258.643 930.487 256.823 928.224 255.494C925.961 254.117 923.402 253.428 920.548 253.428C917.744 253.428 915.21 254.117 912.947 255.494C910.684 256.823 908.912 258.643 907.633 260.956C906.354 263.268 905.714 265.9 905.714 268.852C905.714 271.755 906.354 274.387 907.633 276.749C908.912 279.061 910.684 280.882 912.947 282.21C915.21 283.539 917.744 284.203 920.548 284.203Z" fill="#EAEAEA"/>
<path d="M964.684 289C962.716 289 960.945 288.459 959.37 287.376C957.845 286.294 956.64 284.793 955.754 282.874C954.918 280.956 954.499 278.742 954.499 276.232V234.166C954.499 233.329 954.745 232.665 955.237 232.173C955.779 231.632 956.467 231.361 957.304 231.361C958.14 231.361 958.804 231.632 959.296 232.173C959.838 232.665 960.108 233.329 960.108 234.166V276.232C960.108 278.348 960.526 280.07 961.363 281.398C962.248 282.727 963.355 283.391 964.684 283.391H966.529C967.267 283.391 967.857 283.662 968.3 284.203C968.743 284.695 968.964 285.359 968.964 286.196C968.964 287.032 968.645 287.721 968.005 288.262C967.415 288.754 966.627 289 965.643 289H964.684Z" fill="#EAEAEA"/>
<path d="M996.046 289.369C992.258 289.369 988.863 288.483 985.861 286.712C982.86 284.892 980.474 282.432 978.703 279.332C976.981 276.232 976.12 272.739 976.12 268.852C976.12 264.916 977.005 261.398 978.776 258.299C980.597 255.199 983.057 252.764 986.157 250.992C989.256 249.172 992.75 248.262 996.636 248.262C1000.52 248.262 1003.99 249.172 1007.04 250.992C1010.14 252.764 1012.58 255.199 1014.35 258.299C1016.17 261.398 1017.1 264.916 1017.15 268.852L1014.87 270.623C1014.87 274.166 1014.03 277.364 1012.36 280.218C1010.73 283.022 1008.49 285.261 1005.64 286.934C1002.84 288.557 999.638 289.369 996.046 289.369ZM996.636 284.203C999.49 284.203 1002.02 283.539 1004.24 282.21C1006.5 280.882 1008.27 279.061 1009.55 276.749C1010.88 274.387 1011.54 271.755 1011.54 268.852C1011.54 265.9 1010.88 263.268 1009.55 260.956C1008.27 258.643 1006.5 256.823 1004.24 255.494C1002.02 254.117 999.49 253.428 996.636 253.428C993.832 253.428 991.298 254.117 989.035 255.494C986.772 256.823 984.976 258.643 983.647 260.956C982.319 263.268 981.655 265.9 981.655 268.852C981.655 271.755 982.319 274.387 983.647 276.749C984.976 279.061 986.772 280.882 989.035 282.21C991.298 283.539 993.832 284.203 996.636 284.203ZM1014.27 289C1013.44 289 1012.75 288.754 1012.21 288.262C1011.67 287.721 1011.4 287.032 1011.4 286.196V273.576L1012.8 267.745L1017.15 268.852V286.196C1017.15 287.032 1016.88 287.721 1016.34 288.262C1015.8 288.754 1015.11 289 1014.27 289Z" fill="#EAEAEA"/>
<path d="M1047.69 289C1045.08 289 1042.74 288.385 1040.68 287.155C1038.66 285.925 1037.06 284.252 1035.88 282.136C1034.7 279.972 1034.11 277.512 1034.11 274.756V238.667C1034.11 237.831 1034.36 237.142 1034.85 236.601C1035.39 236.06 1036.08 235.789 1036.91 235.789C1037.75 235.789 1038.44 236.06 1038.98 236.601C1039.52 237.142 1039.79 237.831 1039.79 238.667V274.756C1039.79 277.266 1040.53 279.332 1042.01 280.956C1043.48 282.53 1045.38 283.317 1047.69 283.317H1049.68C1050.47 283.317 1051.11 283.588 1051.6 284.129C1052.09 284.67 1052.34 285.359 1052.34 286.196C1052.34 287.032 1052.04 287.721 1051.45 288.262C1050.86 288.754 1050.12 289 1049.24 289H1047.69ZM1029.31 255.051C1028.57 255.051 1027.96 254.83 1027.47 254.387C1026.98 253.895 1026.73 253.305 1026.73 252.616C1026.73 251.878 1026.98 251.288 1027.47 250.845C1027.96 250.353 1028.57 250.107 1029.31 250.107H1048.13C1048.87 250.107 1049.48 250.353 1049.98 250.845C1050.47 251.288 1050.71 251.878 1050.71 252.616C1050.71 253.305 1050.47 253.895 1049.98 254.387C1049.48 254.83 1048.87 255.051 1048.13 255.051H1029.31Z" fill="#EAEAEA"/>
<path d="M1083.58 289.369C1079.6 289.369 1076.05 288.508 1072.95 286.786C1069.9 285.015 1067.49 282.579 1065.72 279.48C1064 276.38 1063.14 272.838 1063.14 268.852C1063.14 264.818 1063.95 261.275 1065.57 258.225C1067.25 255.125 1069.54 252.69 1072.44 250.919C1075.34 249.147 1078.69 248.262 1082.47 248.262C1086.21 248.262 1089.46 249.123 1092.22 250.845C1095.02 252.518 1097.19 254.855 1098.71 257.856C1100.24 260.857 1101 264.277 1101 268.114C1101 268.901 1100.75 269.541 1100.26 270.033C1099.77 270.476 1099.13 270.697 1098.34 270.697H1066.98V265.974H1098.93L1095.76 268.262C1095.81 265.408 1095.29 262.85 1094.21 260.586C1093.13 258.323 1091.58 256.552 1089.56 255.273C1087.59 253.994 1085.23 253.354 1082.47 253.354C1079.67 253.354 1077.21 254.018 1075.09 255.347C1072.98 256.675 1071.33 258.52 1070.15 260.882C1069.02 263.194 1068.45 265.851 1068.45 268.852C1068.45 271.853 1069.09 274.51 1070.37 276.823C1071.7 279.135 1073.5 280.956 1075.76 282.284C1078.02 283.613 1080.63 284.277 1083.58 284.277C1085.35 284.277 1087.12 283.982 1088.9 283.391C1090.72 282.752 1092.17 281.964 1093.25 281.029C1093.79 280.587 1094.41 280.365 1095.09 280.365C1095.78 280.316 1096.37 280.488 1096.87 280.882C1097.51 281.472 1097.83 282.112 1097.83 282.801C1097.87 283.49 1097.6 284.08 1097.01 284.572C1095.39 285.95 1093.32 287.106 1090.81 288.041C1088.31 288.926 1085.89 289.369 1083.58 289.369Z" fill="#EAEAEA"/>
</svg>
